<?xml version="1.0" encoding="iso-8859-1"?>
<!-- Generator: Adobe Illustrator 19.0.0, SVG Export Plug-In . SVG Version: 6.00 Build 0)  -->
<svg version="1.1" id="Capa_1" xmlns="http://www.w3.org/2000/svg" xmlns:xlink="http://www.w3.org/1999/xlink" x="0px" y="0px"
	 viewBox="0 0 512 512" style="enable-background:new 0 0 512 512;" xml:space="preserve">
<path style="fill:#FA9F6A;" d="M35.859,256.214l9.826-13.99c7.509-10.692,8.555-24.64,2.723-36.332l-7.631-15.298l13.513-10.473
	c10.328-8.003,15.437-21.024,13.311-33.916l-2.783-16.868l16-6.024c12.227-4.604,20.949-15.539,22.717-28.486l2.313-16.938
	l17.064-1.04c13.041-0.795,24.598-8.674,30.103-20.524l7.203-15.504l16.613,4.035c12.697,3.084,26.063-1.038,34.815-10.739
	l11.454-12.693l14.685,8.752c11.224,6.689,25.211,6.689,36.434,0l14.685-8.752l11.453,12.693c8.753,9.7,22.119,13.823,34.815,10.739
	l16.613-4.035l7.203,15.504c5.505,11.849,17.062,19.729,30.103,20.524l17.064,1.04l2.314,16.939
	c1.768,12.945,10.488,23.881,22.716,28.486l16,6.024l-2.783,16.868c-2.126,12.892,2.983,25.912,13.311,33.916l13.513,10.473
	l-7.631,15.298c-5.832,11.693-4.786,25.64,2.723,36.332l9.826,13.99L256,346.242L35.859,256.214z"/>
<circle style="fill:#FADC60;" cx="256" cy="240.661" r="169.29"/>
<g>
	<path style="fill:#3A484A;" d="M177.5,195.651c-4.267,0-7.726-3.459-7.726-7.726v-14.207c0-4.267,3.459-7.726,7.726-7.726
		s7.726,3.459,7.726,7.726v14.207C185.227,192.192,181.767,195.651,177.5,195.651z"/>
	<path style="fill:#3A484A;" d="M334.5,195.651c-4.267,0-7.726-3.459-7.726-7.726v-14.207c0-4.267,3.459-7.726,7.726-7.726
		c4.267,0,7.726,3.459,7.726,7.726v14.207C342.226,192.192,338.767,195.651,334.5,195.651z"/>
	<path style="fill:#3A484A;" d="M256,203.234c-9.782,0-18.964-4.088-25.192-11.214c-2.808-3.213-2.48-8.094,0.732-10.902
		c3.212-2.807,8.093-2.481,10.902,0.733c3.295,3.768,8.235,5.931,13.557,5.931s10.263-2.161,13.558-5.931
		c2.808-3.213,7.689-3.541,10.902-0.732c3.213,2.808,3.541,7.689,0.732,10.902C274.963,199.147,265.781,203.234,256,203.234z"/>
</g>
<path style="fill:#B3F0FF;" d="M512,300.723v-49.365c-23.34-10.078-49.803-10.078-73.143,0l0,0
	c-23.34,10.078-49.803,10.078-73.143,0l0,0c-23.34-10.078-49.803-10.078-73.143,0l0,0c-23.34,10.078-49.803,10.078-73.143,0l0,0
	c-23.34-10.078-49.803-10.078-73.143,0l0,0c-23.34,10.078-49.803,10.078-73.143,0l0,0c-23.34-10.078-49.803-10.078-73.143,0v49.365
	l19.215,19.215h461.365L512,300.723z"/>
<polygon style="fill:#57D0E6;" points="0,392.576 0,350.089 19.215,319.938 480.579,319.938 512,350.089 512,392.576 256,469.506 
	"/>
<path style="fill:#85E7FF;" d="M0,350.089c23.34-10.078,49.803-10.078,73.143,0l0,0c23.34,10.078,49.803,10.078,73.143,0l0,0
	c23.34-10.078,49.803-10.078,73.143,0l0,0c23.34,10.078,49.803,10.078,73.143,0l0,0c23.34-10.078,49.803-10.078,73.143,0l0,0
	c23.34,10.078,49.803,10.078,73.143,0l0,0c23.34-10.078,49.803-10.078,73.143,0v-49.365c-23.34-10.078-49.803-10.078-73.143,0l0,0
	c-23.34,10.078-49.803,10.078-73.143,0l0,0c-23.34-10.078-49.803-10.078-73.143,0l0,0c-23.34,10.078-49.803,10.078-73.143,0l0,0
	c-23.34-10.078-49.803-10.078-73.143,0l0,0c-23.34,10.078-49.803,10.078-73.143,0l0,0c-23.34-10.078-49.803-10.078-73.143,0V350.089
	z"/>
<path style="fill:#F2C42C;" d="M256,425.806c0,0-112-50.23-256-33.23v98h159l88-32.001L256,425.806z"/>
<path style="fill:#FADC60;" d="M512,392.576c0,0-222-28-353,98h353V392.576z"/>
<g>
</g>
<g>
</g>
<g>
</g>
<g>
</g>
<g>
</g>
<g>
</g>
<g>
</g>
<g>
</g>
<g>
</g>
<g>
</g>
<g>
</g>
<g>
</g>
<g>
</g>
<g>
</g>
<g>
</g>
</svg>
