<svg id="Layer_1" enable-background="new 0 0 512 512" height="512" viewBox="0 0 512 512" width="512" xmlns="http://www.w3.org/2000/svg"><g><g><path d="m508.436 252.94-48.416-29.698c-2.894-1.775-4.069-5.392-2.769-8.529l21.8-52.633c1.739-4.197-.98-8.901-5.485-9.49l-56.2-7.341c-3.375-.441-5.926-3.275-6.009-6.678l-1.394-56.947c-.112-4.552-4.521-7.752-8.884-6.446l-54.265 16.242c-3.27.979-6.764-.578-8.223-3.664l-24.306-51.402c-1.95-4.123-7.291-5.257-10.748-2.282l-42.99 37.003c-2.59 2.229-6.42 2.229-9.01 0l-42.99-37.003c-3.457-2.975-8.798-1.842-10.748 2.282l-24.306 51.402c-1.459 3.086-4.953 4.642-8.223 3.664l-54.266-16.242c-4.362-1.306-8.772 1.894-8.884 6.446l-1.394 56.947c-.083 3.403-2.634 6.237-6.009 6.678l-56.2 7.341c-4.505.588-7.224 5.292-5.485 9.49l21.8 52.633c1.299 3.137.125 6.753-2.769 8.529l-48.414 29.698c-3.868 2.372-4.435 7.767-1.146 10.892l41.225 39.174c2.46 2.338 2.857 6.116.936 8.914l-9.484 13.816h441.726l-9.484-13.816c-1.921-2.798-1.524-6.576.936-8.914l41.225-39.174c3.288-3.125 2.721-8.519-1.147-10.892z" fill="#ff712f"/></g><path d="m476.271 324.811-8.849-12.891c-1.921-2.798-1.524-6.577.936-8.914l41.225-39.174c3.289-3.126 2.722-8.52-1.146-10.892l-48.416-29.698c-2.894-1.775-4.069-5.392-2.769-8.529l21.8-52.633c1.739-4.197-.98-8.901-5.485-9.49l-56.2-7.341c-3.375-.441-5.926-3.275-6.009-6.678l-1.394-56.947c-.112-4.552-4.521-7.752-8.884-6.446l-54.266 16.242c-3.27.979-6.764-.578-8.223-3.664l-24.306-51.402c-1.95-4.123-7.291-5.257-10.748-2.282l-42.99 37.003c-1.295 1.115-2.9 1.672-4.505 1.672v252.063h220.229z" fill="#ff4b00"/><circle cx="256.043" cy="287.304" fill="#ffef31" r="143.853"/><path d="m399.896 287.304c0-79.448-64.405-143.853-143.853-143.853v287.706c79.447.001 143.853-64.405 143.853-143.853z" fill="#ffd400"/><path d="m512 349.952h-512v-48.585c0-8.969 7.271-16.239 16.239-16.239h479.521c8.969 0 16.239 7.271 16.239 16.239v48.585z" fill="#ff1786"/><path d="m0 349.952h512v64.824h-512z" fill="#e50048"/><path d="m496.608 479.6h-481.216c-8.501 0-15.392-6.891-15.392-15.392v-49.432h512v49.432c0 8.501-6.891 15.392-15.392 15.392z" fill="#be003b"/><path d="m256 349.952h256v-49.879c0-8.254-7.271-14.945-16.239-14.945h-239.761z" fill="#f50b75"/><path d="m256 349.952h256v64.824h-256z" fill="#d20041"/><path d="m256 479.6h240.608c8.501 0 15.392-6.342 15.392-14.165v-50.659h-256z" fill="#ab0033"/></g></svg>